<svg width="114" height="83" viewBox="0 0 114 83" fill="none" xmlns="http://www.w3.org/2000/svg">
<path id="icon-quote" opacity="0.0712664" fill-rule="evenodd" clip-rule="evenodd" d="M43.1559 61.8801C43.1559 73.8459 34.2507 82.051 21.5779 82.051C9.24769 82.051 0 70.4271 0 55.0425C0 29.0597 21.9204 7.17946 54.4586 0L52.4036 15.0427C36.9907 20.1709 29.7981 29.4016 29.7981 44.4443C38.3608 48.2049 43.1559 54.0169 43.1559 61.8801ZM102.697 61.8801C102.697 73.8459 93.7921 82.051 81.1193 82.051C68.7891 82.051 59.5414 70.4271 59.5414 55.0425C59.5414 29.0597 81.4618 7.17946 114 0L111.945 15.0427C96.5322 20.1709 89.3395 29.4016 89.3395 44.4443C97.9022 48.2049 102.697 54.0169 102.697 61.8801Z" fill="white"/>
</svg>
