<?xml version="1.0" standalone="no"?>
<!DOCTYPE svg PUBLIC "-//W3C//DTD SVG 20010904//EN"
 "http://www.w3.org/TR/2001/REC-SVG-20010904/DTD/svg10.dtd">
<svg version="1.0" xmlns="http://www.w3.org/2000/svg"
 width="192.000000pt" height="192.000000pt" viewBox="0 0 192.000000 192.000000"
 preserveAspectRatio="xMidYMid meet">
<metadata>
Created by potrace 1.14, written by Peter Selinger 2001-2017
</metadata>
<g transform="translate(0.000000,192.000000) scale(0.100000,-0.100000)"
fill="#000000" stroke="none">
<path d="M130 934 l0 -335 48 3 47 3 3 123 3 122 94 0 c72 0 97 4 109 16 13
13 16 45 16 190 0 102 -4 183 -10 195 -10 17 -23 19 -160 19 l-150 0 0 -336z
m220 126 l0 -130 -60 0 -60 0 0 130 0 130 60 0 60 0 0 -130z"/>
<path d="M550 960 l0 -311 25 -25 c25 -25 28 -26 156 -22 116 3 132 5 145 22
11 16 14 79 14 333 l0 313 -50 0 -50 0 0 -290 0 -290 -70 0 -70 0 0 290 0 290
-50 0 -50 0 0 -310z"/>
<path d="M1010 934 l0 -335 150 3 c105 2 153 7 162 16 9 8 14 49 16 118 5 144
-1 170 -44 196 l-35 21 36 24 35 24 0 122 c0 82 -4 127 -12 135 -8 8 -58 12
-160 12 l-148 0 0 -336z m220 172 c0 -78 -2 -85 -25 -100 -13 -9 -40 -16 -60
-16 l-35 0 0 100 0 100 60 0 60 0 0 -84z m-15 -212 c24 -15 25 -21 25 -110 l0
-94 -65 0 -65 0 0 110 0 110 40 0 c23 0 52 -7 65 -16z"/>
<path d="M1460 1251 c-6 -12 -10 -130 -10 -313 0 -238 3 -298 14 -314 13 -17
27 -19 149 -19 99 0 138 4 150 14 15 11 17 37 17 177 l0 164 -85 0 -85 0 0
-40 c0 -39 1 -40 35 -40 l35 0 0 -95 0 -95 -65 0 -65 0 0 250 0 250 65 0 65 0
0 -60 0 -60 50 0 50 0 0 81 c0 123 5 119 -165 119 -132 0 -145 -2 -155 -19z"/>
</g>
</svg>
